<svg width="120" height="120" viewBox="0 0 120 120" fill="none" xmlns="http://www.w3.org/2000/svg">
<rect width="120" height="120" rx="4" fill="#F3F3F3"/>
<path d="M41.1646 89V31.8H61.6686C67.8286 31.8 72.3752 33.032 75.3086 35.496C78.3006 37.96 79.7966 41.6267 79.7966 46.496C79.7966 49.664 79.1512 52.2747 77.8606 54.328C76.5699 56.3813 74.5459 57.9067 71.7886 58.904V59.08C78.1832 60.9573 81.3806 65.592 81.3806 72.984C81.3806 83.6613 75.1912 89 62.8126 89H41.1646ZM51.8126 79.32H61.9326C64.9832 79.32 67.1832 78.7627 68.5326 77.648C69.9406 76.4747 70.6446 74.6267 70.6446 72.104C70.6446 69.4053 69.8526 67.4693 68.2686 66.296C66.7432 65.064 64.2499 64.448 60.7886 64.448H51.8126V79.32ZM51.8126 54.768H59.7326C63.1939 54.768 65.6286 54.24 67.0366 53.184C68.4446 52.0693 69.1486 50.3093 69.1486 47.904C69.1486 45.616 68.5326 43.9733 67.3006 42.976C66.0686 41.9787 63.9272 41.48 60.8766 41.48H51.8126V54.768Z" fill="black"/>
<path d="M92.8049 38V36.436H97.1749V26.27L93.7709 28.892L93.0119 27.88L97.7269 23.372H98.8769V36.436H103.247V38H92.8049Z" fill="#F3490E"/>
<path d="M86.0181 38.276C84.2548 38.276 82.9055 37.632 81.9701 36.344C81.0348 35.056 80.5671 33.193 80.5671 30.755C80.5671 28.317 81.0348 26.454 81.9701 25.166C82.9055 23.878 84.2548 23.234 86.0181 23.234C87.7968 23.234 89.1461 23.878 90.0661 25.166C91.0015 26.454 91.4691 28.317 91.4691 30.755C91.4691 33.193 91.0015 35.056 90.0661 36.344C89.1461 37.632 87.7968 38.276 86.0181 38.276ZM86.0181 36.666C87.2448 36.666 88.1725 36.1677 88.8011 35.171C89.4298 34.1743 89.7441 32.7023 89.7441 30.755C89.7441 30.2643 89.7211 29.812 89.6751 29.398C89.6445 28.9687 89.5908 28.57 89.5141 28.202L83.0511 34.849C83.6798 36.0603 84.6688 36.666 86.0181 36.666ZM82.5221 33.308L88.9851 26.661C88.3565 25.4497 87.3675 24.844 86.0181 24.844C84.7915 24.844 83.8638 25.3423 83.2351 26.339C82.6065 27.3357 82.2921 28.8077 82.2921 30.755C82.2921 31.2303 82.3075 31.6827 82.3381 32.112C82.3841 32.5413 82.4455 32.94 82.5221 33.308Z" fill="#F3490E"/>
</svg>
