<svg width="208" height="218" viewBox="0 0 208 218" fill="none" xmlns="http://www.w3.org/2000/svg">
<g filter="url(#filter0_d_27_449)">
<rect x="27" y="36.8" width="120" height="120" rx="4" fill="#F3F3F3"/>
</g>
<path d="M68.1646 125.8V68.6H88.6686C94.8286 68.6 99.3752 69.832 102.309 72.296C105.301 74.76 106.797 78.4267 106.797 83.296C106.797 86.464 106.151 89.0747 104.861 91.128C103.57 93.1813 101.546 94.7067 98.7886 95.704V95.88C105.183 97.7573 108.381 102.392 108.381 109.784C108.381 120.461 102.191 125.8 89.8126 125.8H68.1646ZM78.8126 116.12H88.9326C91.9832 116.12 94.1832 115.563 95.5326 114.448C96.9406 113.275 97.6446 111.427 97.6446 108.904C97.6446 106.205 96.8526 104.269 95.2686 103.096C93.7432 101.864 91.2499 101.248 87.7886 101.248H78.8126V116.12ZM78.8126 91.568H86.7326C90.1939 91.568 92.6286 91.04 94.0366 89.984C95.4446 88.8693 96.1486 87.1093 96.1486 84.704C96.1486 82.416 95.5326 80.7733 94.3006 79.776C93.0686 78.7787 90.9272 78.28 87.8766 78.28H78.8126V91.568Z" fill="black"/>
<path d="M113.018 75.076C111.255 75.076 109.906 74.432 108.97 73.144C108.035 71.856 107.567 69.993 107.567 67.555C107.567 65.117 108.035 63.254 108.97 61.966C109.906 60.678 111.255 60.034 113.018 60.034C114.797 60.034 116.146 60.678 117.066 61.966C118.002 63.254 118.469 65.117 118.469 67.555C118.469 69.993 118.002 71.856 117.066 73.144C116.146 74.432 114.797 75.076 113.018 75.076ZM113.018 73.466C114.245 73.466 115.173 72.9677 115.801 71.971C116.43 70.9743 116.744 69.5023 116.744 67.555C116.744 67.0643 116.721 66.612 116.675 66.198C116.645 65.7687 116.591 65.37 116.514 65.002L110.051 71.649C110.68 72.8603 111.669 73.466 113.018 73.466ZM109.522 70.108L115.985 63.461C115.357 62.2497 114.368 61.644 113.018 61.644C111.792 61.644 110.864 62.1423 110.235 63.139C109.607 64.1357 109.292 65.6077 109.292 67.555C109.292 68.0303 109.308 68.4827 109.338 68.912C109.384 69.3413 109.446 69.74 109.522 70.108ZM119.805 74.8V73.236H124.175V63.07L120.771 65.692L120.012 64.68L124.727 60.172H125.877V73.236H130.247V74.8H119.805Z" fill="#F3490E"/>
<defs>
<filter id="filter0_d_27_449" x="-9.8" y="-1.14441e-05" width="217.6" height="217.6" filterUnits="userSpaceOnUse" color-interpolation-filters="sRGB">
<feFlood flood-opacity="0" result="BackgroundImageFix"/>
<feColorMatrix in="SourceAlpha" type="matrix" values="0 0 0 0 0 0 0 0 0 0 0 0 0 0 0 0 0 0 127 0" result="hardAlpha"/>
<feOffset dx="12" dy="12"/>
<feGaussianBlur stdDeviation="24.4"/>
<feComposite in2="hardAlpha" operator="out"/>
<feColorMatrix type="matrix" values="0 0 0 0 0 0 0 0 0 0 0 0 0 0 0 0 0 0 0.25 0"/>
<feBlend mode="normal" in2="BackgroundImageFix" result="effect1_dropShadow_27_449"/>
<feBlend mode="normal" in="SourceGraphic" in2="effect1_dropShadow_27_449" result="shape"/>
</filter>
</defs>
</svg>
